ISO-10303-21;
HEADER;
/* Generated by software containing ST-Developer
 * from STEP Tools, Inc. (www.steptools.com) 
 */

FILE_DESCRIPTION(
/* description */ (''),
/* implementation_level */ '2;1');

FILE_NAME(
/* name */ 'Final Bottom Stand.step',
/* time_stamp */ '2026-09-25T14:17:56-04:00',
/* author */ (''),
/* organization */ (''),
/* preprocessor_version */ 'ST-DEVELOPER v20.2',
/* originating_system */ 'Autodesk Translation Framework v15.15.0.0',
/* authorisation */ '');

FILE_SCHEMA (('AUTOMOTIVE_DESIGN { 1 0 10303 214 3 1 1 }'));
ENDSEC;

DATA;
#10=MECHANICAL_DESIGN_GEOMETRIC_PRESENTATION_REPRESENTATION('',(#13),#1105);
#11=SHAPE_REPRESENTATION_RELATIONSHIP('SRR','None',#1112,#12);
#12=ADVANCED_BREP_SHAPE_REPRESENTATION('',(#14),#1104);
#13=STYLED_ITEM('',(#1121),#14);
#14=MANIFOLD_SOLID_BREP('Final Bottom Stand',#653);
#15=FACE_BOUND('',#105,.T.);
#16=FACE_BOUND('',#107,.T.);
#17=FACE_BOUND('',#108,.T.);
#18=FACE_BOUND('',#109,.T.);
#19=PLANE('',#670);
#20=PLANE('',#674);
#21=PLANE('',#675);
#22=PLANE('',#682);
#23=PLANE('',#683);
#24=PLANE('',#684);
#25=PLANE('',#691);
#26=PLANE('',#695);
#27=PLANE('',#699);
#28=PLANE('',#703);
#29=PLANE('',#704);
#30=PLANE('',#708);
#31=PLANE('',#712);
#32=PLANE('',#716);
#33=PLANE('',#717);
#34=PLANE('',#718);
#35=PLANE('',#719);
#36=PLANE('',#720);
#37=PLANE('',#721);
#38=PLANE('',#722);
#39=PLANE('',#723);
#40=PLANE('',#724);
#41=PLANE('',#725);
#42=PLANE('',#726);
#43=FACE_OUTER_BOUND('',#79,.T.);
#44=FACE_OUTER_BOUND('',#80,.T.);
#45=FACE_OUTER_BOUND('',#81,.T.);
#46=FACE_OUTER_BOUND('',#82,.T.);
#47=FACE_OUTER_BOUND('',#83,.T.);
#48=FACE_OUTER_BOUND('',#84,.T.);
#49=FACE_OUTER_BOUND('',#85,.T.);
#50=FACE_OUTER_BOUND('',#86,.T.);
#51=FACE_OUTER_BOUND('',#87,.T.);
#52=FACE_OUTER_BOUND('',#88,.T.);
#53=FACE_OUTER_BOUND('',#89,.T.);
#54=FACE_OUTER_BOUND('',#90,.T.);
#55=FACE_OUTER_BOUND('',#91,.T.);
#56=FACE_OUTER_BOUND('',#92,.T.);
#57=FACE_OUTER_BOUND('',#93,.T.);
#58=FACE_OUTER_BOUND('',#94,.T.);
#59=FACE_OUTER_BOUND('',#95,.T.);
#60=FACE_OUTER_BOUND('',#96,.T.);
#61=FACE_OUTER_BOUND('',#97,.T.);
#62=FACE_OUTER_BOUND('',#98,.T.);
#63=FACE_OUTER_BOUND('',#99,.T.);
#64=FACE_OUTER_BOUND('',#100,.T.);
#65=FACE_OUTER_BOUND('',#101,.T.);
#66=FACE_OUTER_BOUND('',#102,.T.);
#67=FACE_OUTER_BOUND('',#103,.T.);
#68=FACE_OUTER_BOUND('',#104,.T.);
#69=FACE_OUTER_BOUND('',#106,.T.);
#70=FACE_OUTER_BOUND('',#110,.T.);
#71=FACE_OUTER_BOUND('',#111,.T.);
#72=FACE_OUTER_BOUND('',#112,.T.);
#73=FACE_OUTER_BOUND('',#113,.T.);
#74=FACE_OUTER_BOUND('',#114,.T.);
#75=FACE_OUTER_BOUND('',#115,.T.);
#76=FACE_OUTER_BOUND('',#116,.T.);
#77=FACE_OUTER_BOUND('',#117,.T.);
#78=FACE_OUTER_BOUND('',#118,.T.);
#79=EDGE_LOOP('',(#425,#426,#427,#428));
#80=EDGE_LOOP('',(#429,#430,#431,#432));
#81=EDGE_LOOP('',(#433,#434,#435,#436));
#82=EDGE_LOOP('',(#437,#438,#439,#440));
#83=EDGE_LOOP('',(#441,#442,#443,#444));
#84=EDGE_LOOP('',(#445,#446,#447,#448));
#85=EDGE_LOOP('',(#449,#450,#451,#452));
#86=EDGE_LOOP('',(#453,#454,#455,#456));
#87=EDGE_LOOP('',(#457,#458,#459,#460));
#88=EDGE_LOOP('',(#461,#462,#463,#464));
#89=EDGE_LOOP('',(#465,#466,#467,#468));
#90=EDGE_LOOP('',(#469,#470,#471,#472));
#91=EDGE_LOOP('',(#473,#474,#475,#476));
#92=EDGE_LOOP('',(#477,#478,#479,#480));
#93=EDGE_LOOP('',(#481));
#94=EDGE_LOOP('',(#482,#483,#484,#485));
#95=EDGE_LOOP('',(#486));
#96=EDGE_LOOP('',(#487,#488,#489,#490));
#97=EDGE_LOOP('',(#491));
#98=EDGE_LOOP('',(#492,#493,#494,#495));
#99=EDGE_LOOP('',(#496,#497,#498,#499));
#100=EDGE_LOOP('',(#500,#501,#502,#503));
#101=EDGE_LOOP('',(#504,#505,#506,#507));
#102=EDGE_LOOP('',(#508,#509,#510,#511));
#103=EDGE_LOOP('',(#512,#513,#514,#515));
#104=EDGE_LOOP('',(#516,#517,#518,#519,#520,#521));
#105=EDGE_LOOP('',(#522,#523,#524,#525));
#106=EDGE_LOOP('',(#526,#527,#528,#529,#530,#531));
#107=EDGE_LOOP('',(#532));
#108=EDGE_LOOP('',(#533));
#109=EDGE_LOOP('',(#534));
#110=EDGE_LOOP('',(#535,#536,#537,#538));
#111=EDGE_LOOP('',(#539,#540,#541,#542));
#112=EDGE_LOOP('',(#543,#544,#545,#546));
#113=EDGE_LOOP('',(#547,#548,#549,#550,#551,#552,#553,#554));
#114=EDGE_LOOP('',(#555,#556,#557,#558));
#115=EDGE_LOOP('',(#559,#560,#561,#562,#563,#564,#565,#566,#567,#568,#569,
#570,#571,#572,#573,#574,#575));
#116=EDGE_LOOP('',(#576,#577,#578,#579,#580,#581,#582,#583,#584,#585,#586,
#587,#588,#589,#590,#591,#592));
#117=EDGE_LOOP('',(#593,#594,#595,#596,#597,#598,#599,#600));
#118=EDGE_LOOP('',(#601,#602,#603,#604));
#119=LINE('',#921,#185);
#120=LINE('',#924,#186);
#121=LINE('',#927,#187);
#122=LINE('',#929,#188);
#123=LINE('',#930,#189);
#124=LINE('',#936,#190);
#125=LINE('',#939,#191);
#126=LINE('',#942,#192);
#127=LINE('',#944,#193);
#128=LINE('',#945,#194);
#129=LINE('',#949,#195);
#130=LINE('',#951,#196);
#131=LINE('',#953,#197);
#132=LINE('',#954,#198);
#133=LINE('',#960,#199);
#134=LINE('',#966,#200);
#135=LINE('',#969,#201);
#136=LINE('',#972,#202);
#137=LINE('',#974,#203);
#138=LINE('',#975,#204);
#139=LINE('',#977,#205);
#140=LINE('',#978,#206);
#141=LINE('',#981,#207);
#142=LINE('',#983,#208);
#143=LINE('',#984,#209);
#144=LINE('',#990,#210);
#145=LINE('',#996,#211);
#146=LINE('',#998,#212);
#147=LINE('',#999,#213);
#148=LINE('',#1004,#214);
#149=LINE('',#1011,#215);
#150=LINE('',#1018,#216);
#151=LINE('',#1024,#217);
#152=LINE('',#1026,#218);
#153=LINE('',#1028,#219);
#154=LINE('',#1029,#220);
#155=LINE('',#1035,#221);
#156=LINE('',#1038,#222);
#157=LINE('',#1040,#223);
#158=LINE('',#1041,#224);
#159=LINE('',#1047,#225);
#160=LINE('',#1050,#226);
#161=LINE('',#1052,#227);
#162=LINE('',#1053,#228);
#163=LINE('',#1058,#229);
#164=LINE('',#1059,#230);
#165=LINE('',#1064,#231);
#166=LINE('',#1066,#232);
#167=LINE('',#1068,#233);
#168=LINE('',#1069,#234);
#169=LINE('',#1072,#235);
#170=LINE('',#1074,#236);
#171=LINE('',#1075,#237);
#172=LINE('',#1078,#238);
#173=LINE('',#1080,#239);
#174=LINE('',#1081,#240);
#175=LINE('',#1084,#241);
#176=LINE('',#1085,#242);
#177=LINE('',#1087,#243);
#178=LINE('',#1088,#244);
#179=LINE('',#1091,#245);
#180=LINE('',#1092,#246);
#181=LINE('',#1095,#247);
#182=LINE('',#1096,#248);
#183=LINE('',#1098,#249);
#184=LINE('',#1100,#250);
#185=VECTOR('',#733,10.);
#186=VECTOR('',#736,10.);
#187=VECTOR('',#739,10.);
#188=VECTOR('',#740,10.);
#189=VECTOR('',#741,10.);
#190=VECTOR('',#746,10.);
#191=VECTOR('',#749,10.);
#192=VECTOR('',#752,10.);
#193=VECTOR('',#753,10.);
#194=VECTOR('',#754,10.);
#195=VECTOR('',#757,10.);
#196=VECTOR('',#758,10.);
#197=VECTOR('',#759,10.);
#198=VECTOR('',#760,10.);
#199=VECTOR('',#767,10.);
#200=VECTOR('',#772,10.);
#201=VECTOR('',#775,10.);
#202=VECTOR('',#778,10.);
#203=VECTOR('',#779,10.);
#204=VECTOR('',#780,10.);
#205=VECTOR('',#783,10.);
#206=VECTOR('',#784,10.);
#207=VECTOR('',#787,10.);
#208=VECTOR('',#788,10.);
#209=VECTOR('',#789,10.);
#210=VECTOR('',#796,10.);
#211=VECTOR('',#803,10.);
#212=VECTOR('',#806,10.);
#213=VECTOR('',#807,10.);
#214=VECTOR('',#812,2.265);
#215=VECTOR('',#821,2.26500000000001);
#216=VECTOR('',#830,2.265);
#217=VECTOR('',#837,10.);
#218=VECTOR('',#838,10.);
#219=VECTOR('',#839,10.);
#220=VECTOR('',#840,10.);
#221=VECTOR('',#847,10.);
#222=VECTOR('',#850,10.);
#223=VECTOR('',#851,10.);
#224=VECTOR('',#852,10.);
#225=VECTOR('',#859,10.);
#226=VECTOR('',#862,10.);
#227=VECTOR('',#863,10.);
#228=VECTOR('',#864,10.);
#229=VECTOR('',#873,10.);
#230=VECTOR('',#874,10.);
#231=VECTOR('',#879,10.);
#232=VECTOR('',#880,10.);
#233=VECTOR('',#881,10.);
#234=VECTOR('',#882,10.);
#235=VECTOR('',#885,10.);
#236=VECTOR('',#886,10.);
#237=VECTOR('',#887,10.);
#238=VECTOR('',#890,10.);
#239=VECTOR('',#891,10.);
#240=VECTOR('',#892,10.);
#241=VECTOR('',#895,10.);
#242=VECTOR('',#896,10.);
#243=VECTOR('',#897,10.);
#244=VECTOR('',#898,10.);
#245=VECTOR('',#901,10.);
#246=VECTOR('',#902,10.);
#247=VECTOR('',#905,10.);
#248=VECTOR('',#906,10.);
#249=VECTOR('',#909,10.);
#250=VECTOR('',#912,10.);
#251=CIRCLE('',#668,6.);
#252=CIRCLE('',#669,6.);
#253=CIRCLE('',#672,17.);
#254=CIRCLE('',#673,17.);
#255=CIRCLE('',#677,5.);
#256=CIRCLE('',#678,5.);
#257=CIRCLE('',#680,20.);
#258=CIRCLE('',#681,20.);
#259=CIRCLE('',#686,12.);
#260=CIRCLE('',#687,12.);
#261=CIRCLE('',#689,30.);
#262=CIRCLE('',#690,30.);
#263=CIRCLE('',#693,2.265);
#264=CIRCLE('',#694,2.265);
#265=CIRCLE('',#697,2.26500000000001);
#266=CIRCLE('',#698,2.26500000000001);
#267=CIRCLE('',#701,2.265);
#268=CIRCLE('',#702,2.265);
#269=CIRCLE('',#706,5.49999999999999);
#270=CIRCLE('',#707,5.49999999999999);
#271=CIRCLE('',#710,5.49999999999999);
#272=CIRCLE('',#711,5.49999999999999);
#273=CIRCLE('',#714,5.49999999999998);
#274=CIRCLE('',#715,5.49999999999998);
#275=VERTEX_POINT('',#917);
#276=VERTEX_POINT('',#918);
#277=VERTEX_POINT('',#920);
#278=VERTEX_POINT('',#922);
#279=VERTEX_POINT('',#926);
#280=VERTEX_POINT('',#928);
#281=VERTEX_POINT('',#932);
#282=VERTEX_POINT('',#933);
#283=VERTEX_POINT('',#935);
#284=VERTEX_POINT('',#937);
#285=VERTEX_POINT('',#941);
#286=VERTEX_POINT('',#943);
#287=VERTEX_POINT('',#947);
#288=VERTEX_POINT('',#948);
#289=VERTEX_POINT('',#950);
#290=VERTEX_POINT('',#952);
#291=VERTEX_POINT('',#956);
#292=VERTEX_POINT('',#958);
#293=VERTEX_POINT('',#962);
#294=VERTEX_POINT('',#963);
#295=VERTEX_POINT('',#965);
#296=VERTEX_POINT('',#967);
#297=VERTEX_POINT('',#971);
#298=VERTEX_POINT('',#973);
#299=VERTEX_POINT('',#980);
#300=VERTEX_POINT('',#982);
#301=VERTEX_POINT('',#986);
#302=VERTEX_POINT('',#988);
#303=VERTEX_POINT('',#992);
#304=VERTEX_POINT('',#994);
#305=VERTEX_POINT('',#1001);
#306=VERTEX_POINT('',#1003);
#307=VERTEX_POINT('',#1008);
#308=VERTEX_POINT('',#1010);
#309=VERTEX_POINT('',#1015);
#310=VERTEX_POINT('',#1017);
#311=VERTEX_POINT('',#1022);
#312=VERTEX_POINT('',#1023);
#313=VERTEX_POINT('',#1025);
#314=VERTEX_POINT('',#1027);
#315=VERTEX_POINT('',#1031);
#316=VERTEX_POINT('',#1033);
#317=VERTEX_POINT('',#1037);
#318=VERTEX_POINT('',#1039);
#319=VERTEX_POINT('',#1043);
#320=VERTEX_POINT('',#1045);
#321=VERTEX_POINT('',#1049);
#322=VERTEX_POINT('',#1051);
#323=VERTEX_POINT('',#1062);
#324=VERTEX_POINT('',#1063);
#325=VERTEX_POINT('',#1065);
#326=VERTEX_POINT('',#1067);
#327=VERTEX_POINT('',#1071);
#328=VERTEX_POINT('',#1073);
#329=VERTEX_POINT('',#1077);
#330=VERTEX_POINT('',#1079);
#331=VERTEX_POINT('',#1083);
#332=VERTEX_POINT('',#1086);
#333=VERTEX_POINT('',#1090);
#334=VERTEX_POINT('',#1094);
#335=EDGE_CURVE('',#275,#276,#251,.T.);
#336=EDGE_CURVE('',#276,#277,#119,.T.);
#337=EDGE_CURVE('',#277,#278,#252,.T.);
#338=EDGE_CURVE('',#278,#275,#120,.T.);
#339=EDGE_CURVE('',#276,#279,#121,.T.);
#340=EDGE_CURVE('',#280,#279,#122,.T.);
#341=EDGE_CURVE('',#277,#280,#123,.T.);
#342=EDGE_CURVE('',#281,#282,#253,.T.);
#343=EDGE_CURVE('',#282,#283,#124,.T.);
#344=EDGE_CURVE('',#283,#284,#254,.T.);
#345=EDGE_CURVE('',#284,#281,#125,.T.);
#346=EDGE_CURVE('',#285,#284,#126,.T.);
#347=EDGE_CURVE('',#286,#285,#127,.T.);
#348=EDGE_CURVE('',#286,#281,#128,.T.);
#349=EDGE_CURVE('',#287,#288,#129,.T.);
#350=EDGE_CURVE('',#287,#289,#130,.T.);
#351=EDGE_CURVE('',#289,#290,#131,.T.);
#352=EDGE_CURVE('',#290,#288,#132,.T.);
#353=EDGE_CURVE('',#291,#286,#255,.T.);
#354=EDGE_CURVE('',#285,#292,#256,.T.);
#355=EDGE_CURVE('',#292,#291,#133,.T.);
#356=EDGE_CURVE('',#293,#294,#257,.T.);
#357=EDGE_CURVE('',#294,#295,#134,.T.);
#358=EDGE_CURVE('',#295,#296,#258,.T.);
#359=EDGE_CURVE('',#296,#293,#135,.T.);
#360=EDGE_CURVE('',#297,#296,#136,.T.);
#361=EDGE_CURVE('',#298,#297,#137,.T.);
#362=EDGE_CURVE('',#298,#293,#138,.T.);
#363=EDGE_CURVE('',#282,#290,#139,.T.);
#364=EDGE_CURVE('',#283,#289,#140,.T.);
#365=EDGE_CURVE('',#299,#292,#141,.T.);
#366=EDGE_CURVE('',#300,#299,#142,.T.);
#367=EDGE_CURVE('',#300,#291,#143,.T.);
#368=EDGE_CURVE('',#301,#298,#259,.T.);
#369=EDGE_CURVE('',#297,#302,#260,.T.);
#370=EDGE_CURVE('',#301,#302,#144,.T.);
#371=EDGE_CURVE('',#303,#300,#261,.T.);
#372=EDGE_CURVE('',#299,#304,#262,.T.);
#373=EDGE_CURVE('',#303,#304,#145,.T.);
#374=EDGE_CURVE('',#295,#278,#146,.T.);
#375=EDGE_CURVE('',#294,#275,#147,.T.);
#376=EDGE_CURVE('',#305,#305,#263,.T.);
#377=EDGE_CURVE('',#305,#306,#148,.T.);
#378=EDGE_CURVE('',#306,#306,#264,.T.);
#379=EDGE_CURVE('',#307,#307,#265,.T.);
#380=EDGE_CURVE('',#307,#308,#149,.T.);
#381=EDGE_CURVE('',#308,#308,#266,.T.);
#382=EDGE_CURVE('',#309,#309,#267,.T.);
#383=EDGE_CURVE('',#309,#310,#150,.T.);
#384=EDGE_CURVE('',#310,#310,#268,.T.);
#385=EDGE_CURVE('',#311,#312,#151,.T.);
#386=EDGE_CURVE('',#312,#313,#152,.T.);
#387=EDGE_CURVE('',#314,#313,#153,.T.);
#388=EDGE_CURVE('',#311,#314,#154,.T.);
#389=EDGE_CURVE('',#315,#311,#269,.T.);
#390=EDGE_CURVE('',#316,#314,#270,.T.);
#391=EDGE_CURVE('',#315,#316,#155,.T.);
#392=EDGE_CURVE('',#317,#315,#156,.T.);
#393=EDGE_CURVE('',#318,#316,#157,.T.);
#394=EDGE_CURVE('',#317,#318,#158,.T.);
#395=EDGE_CURVE('',#319,#317,#271,.T.);
#396=EDGE_CURVE('',#320,#318,#272,.T.);
#397=EDGE_CURVE('',#319,#320,#159,.T.);
#398=EDGE_CURVE('',#321,#319,#160,.T.);
#399=EDGE_CURVE('',#322,#320,#161,.T.);
#400=EDGE_CURVE('',#321,#322,#162,.T.);
#401=EDGE_CURVE('',#312,#321,#273,.T.);
#402=EDGE_CURVE('',#313,#322,#274,.T.);
#403=EDGE_CURVE('',#279,#287,#163,.T.);
#404=EDGE_CURVE('',#288,#280,#164,.T.);
#405=EDGE_CURVE('',#323,#324,#165,.T.);
#406=EDGE_CURVE('',#325,#323,#166,.T.);
#407=EDGE_CURVE('',#326,#325,#167,.T.);
#408=EDGE_CURVE('',#326,#324,#168,.T.);
#409=EDGE_CURVE('',#324,#327,#169,.T.);
#410=EDGE_CURVE('',#328,#326,#170,.T.);
#411=EDGE_CURVE('',#327,#328,#171,.T.);
#412=EDGE_CURVE('',#329,#323,#172,.T.);
#413=EDGE_CURVE('',#330,#329,#173,.T.);
#414=EDGE_CURVE('',#325,#330,#174,.T.);
#415=EDGE_CURVE('',#331,#327,#175,.T.);
#416=EDGE_CURVE('',#303,#331,#176,.T.);
#417=EDGE_CURVE('',#304,#332,#177,.T.);
#418=EDGE_CURVE('',#329,#332,#178,.T.);
#419=EDGE_CURVE('',#328,#333,#179,.T.);
#420=EDGE_CURVE('',#333,#331,#180,.T.);
#421=EDGE_CURVE('',#301,#334,#181,.T.);
#422=EDGE_CURVE('',#332,#334,#182,.T.);
#423=EDGE_CURVE('',#302,#333,#183,.T.);
#424=EDGE_CURVE('',#334,#330,#184,.T.);
#425=ORIENTED_EDGE('',*,*,#335,.T.);
#426=ORIENTED_EDGE('',*,*,#336,.T.);
#427=ORIENTED_EDGE('',*,*,#337,.T.);
#428=ORIENTED_EDGE('',*,*,#338,.T.);
#429=ORIENTED_EDGE('',*,*,#336,.F.);
#430=ORIENTED_EDGE('',*,*,#339,.T.);
#431=ORIENTED_EDGE('',*,*,#340,.F.);
#432=ORIENTED_EDGE('',*,*,#341,.F.);
#433=ORIENTED_EDGE('',*,*,#342,.T.);
#434=ORIENTED_EDGE('',*,*,#343,.T.);
#435=ORIENTED_EDGE('',*,*,#344,.T.);
#436=ORIENTED_EDGE('',*,*,#345,.T.);
#437=ORIENTED_EDGE('',*,*,#345,.F.);
#438=ORIENTED_EDGE('',*,*,#346,.F.);
#439=ORIENTED_EDGE('',*,*,#347,.F.);
#440=ORIENTED_EDGE('',*,*,#348,.T.);
#441=ORIENTED_EDGE('',*,*,#349,.F.);
#442=ORIENTED_EDGE('',*,*,#350,.T.);
#443=ORIENTED_EDGE('',*,*,#351,.T.);
#444=ORIENTED_EDGE('',*,*,#352,.T.);
#445=ORIENTED_EDGE('',*,*,#353,.T.);
#446=ORIENTED_EDGE('',*,*,#347,.T.);
#447=ORIENTED_EDGE('',*,*,#354,.T.);
#448=ORIENTED_EDGE('',*,*,#355,.T.);
#449=ORIENTED_EDGE('',*,*,#356,.T.);
#450=ORIENTED_EDGE('',*,*,#357,.T.);
#451=ORIENTED_EDGE('',*,*,#358,.T.);
#452=ORIENTED_EDGE('',*,*,#359,.T.);
#453=ORIENTED_EDGE('',*,*,#359,.F.);
#454=ORIENTED_EDGE('',*,*,#360,.F.);
#455=ORIENTED_EDGE('',*,*,#361,.F.);
#456=ORIENTED_EDGE('',*,*,#362,.T.);
#457=ORIENTED_EDGE('',*,*,#343,.F.);
#458=ORIENTED_EDGE('',*,*,#363,.T.);
#459=ORIENTED_EDGE('',*,*,#351,.F.);
#460=ORIENTED_EDGE('',*,*,#364,.F.);
#461=ORIENTED_EDGE('',*,*,#355,.F.);
#462=ORIENTED_EDGE('',*,*,#365,.F.);
#463=ORIENTED_EDGE('',*,*,#366,.F.);
#464=ORIENTED_EDGE('',*,*,#367,.T.);
#465=ORIENTED_EDGE('',*,*,#368,.T.);
#466=ORIENTED_EDGE('',*,*,#361,.T.);
#467=ORIENTED_EDGE('',*,*,#369,.T.);
#468=ORIENTED_EDGE('',*,*,#370,.F.);
#469=ORIENTED_EDGE('',*,*,#371,.T.);
#470=ORIENTED_EDGE('',*,*,#366,.T.);
#471=ORIENTED_EDGE('',*,*,#372,.T.);
#472=ORIENTED_EDGE('',*,*,#373,.F.);
#473=ORIENTED_EDGE('',*,*,#338,.F.);
#474=ORIENTED_EDGE('',*,*,#374,.F.);
#475=ORIENTED_EDGE('',*,*,#357,.F.);
#476=ORIENTED_EDGE('',*,*,#375,.T.);
#477=ORIENTED_EDGE('',*,*,#376,.F.);
#478=ORIENTED_EDGE('',*,*,#377,.T.);
#479=ORIENTED_EDGE('',*,*,#378,.F.);
#480=ORIENTED_EDGE('',*,*,#377,.F.);
#481=ORIENTED_EDGE('',*,*,#376,.T.);
#482=ORIENTED_EDGE('',*,*,#379,.F.);
#483=ORIENTED_EDGE('',*,*,#380,.T.);
#484=ORIENTED_EDGE('',*,*,#381,.F.);
#485=ORIENTED_EDGE('',*,*,#380,.F.);
#486=ORIENTED_EDGE('',*,*,#379,.T.);
#487=ORIENTED_EDGE('',*,*,#382,.F.);
#488=ORIENTED_EDGE('',*,*,#383,.T.);
#489=ORIENTED_EDGE('',*,*,#384,.F.);
#490=ORIENTED_EDGE('',*,*,#383,.F.);
#491=ORIENTED_EDGE('',*,*,#382,.T.);
#492=ORIENTED_EDGE('',*,*,#385,.T.);
#493=ORIENTED_EDGE('',*,*,#386,.T.);
#494=ORIENTED_EDGE('',*,*,#387,.F.);
#495=ORIENTED_EDGE('',*,*,#388,.F.);
#496=ORIENTED_EDGE('',*,*,#389,.T.);
#497=ORIENTED_EDGE('',*,*,#388,.T.);
#498=ORIENTED_EDGE('',*,*,#390,.F.);
#499=ORIENTED_EDGE('',*,*,#391,.F.);
#500=ORIENTED_EDGE('',*,*,#392,.T.);
#501=ORIENTED_EDGE('',*,*,#391,.T.);
#502=ORIENTED_EDGE('',*,*,#393,.F.);
#503=ORIENTED_EDGE('',*,*,#394,.F.);
#504=ORIENTED_EDGE('',*,*,#395,.T.);
#505=ORIENTED_EDGE('',*,*,#394,.T.);
#506=ORIENTED_EDGE('',*,*,#396,.F.);
#507=ORIENTED_EDGE('',*,*,#397,.F.);
#508=ORIENTED_EDGE('',*,*,#398,.T.);
#509=ORIENTED_EDGE('',*,*,#397,.T.);
#510=ORIENTED_EDGE('',*,*,#399,.F.);
#511=ORIENTED_EDGE('',*,*,#400,.F.);
#512=ORIENTED_EDGE('',*,*,#401,.T.);
#513=ORIENTED_EDGE('',*,*,#400,.T.);
#514=ORIENTED_EDGE('',*,*,#402,.F.);
#515=ORIENTED_EDGE('',*,*,#386,.F.);
#516=ORIENTED_EDGE('',*,*,#402,.T.);
#517=ORIENTED_EDGE('',*,*,#399,.T.);
#518=ORIENTED_EDGE('',*,*,#396,.T.);
#519=ORIENTED_EDGE('',*,*,#393,.T.);
#520=ORIENTED_EDGE('',*,*,#390,.T.);
#521=ORIENTED_EDGE('',*,*,#387,.T.);
#522=ORIENTED_EDGE('',*,*,#340,.T.);
#523=ORIENTED_EDGE('',*,*,#403,.T.);
#524=ORIENTED_EDGE('',*,*,#349,.T.);
#525=ORIENTED_EDGE('',*,*,#404,.T.);
#526=ORIENTED_EDGE('',*,*,#401,.F.);
#527=ORIENTED_EDGE('',*,*,#385,.F.);
#528=ORIENTED_EDGE('',*,*,#389,.F.);
#529=ORIENTED_EDGE('',*,*,#392,.F.);
#530=ORIENTED_EDGE('',*,*,#395,.F.);
#531=ORIENTED_EDGE('',*,*,#398,.F.);
#532=ORIENTED_EDGE('',*,*,#378,.T.);
#533=ORIENTED_EDGE('',*,*,#381,.T.);
#534=ORIENTED_EDGE('',*,*,#384,.T.);
#535=ORIENTED_EDGE('',*,*,#405,.F.);
#536=ORIENTED_EDGE('',*,*,#406,.F.);
#537=ORIENTED_EDGE('',*,*,#407,.F.);
#538=ORIENTED_EDGE('',*,*,#408,.T.);
#539=ORIENTED_EDGE('',*,*,#409,.F.);
#540=ORIENTED_EDGE('',*,*,#408,.F.);
#541=ORIENTED_EDGE('',*,*,#410,.F.);
#542=ORIENTED_EDGE('',*,*,#411,.F.);
#543=ORIENTED_EDGE('',*,*,#412,.F.);
#544=ORIENTED_EDGE('',*,*,#413,.F.);
#545=ORIENTED_EDGE('',*,*,#414,.F.);
#546=ORIENTED_EDGE('',*,*,#406,.T.);
#547=ORIENTED_EDGE('',*,*,#412,.T.);
#548=ORIENTED_EDGE('',*,*,#405,.T.);
#549=ORIENTED_EDGE('',*,*,#409,.T.);
#550=ORIENTED_EDGE('',*,*,#415,.F.);
#551=ORIENTED_EDGE('',*,*,#416,.F.);
#552=ORIENTED_EDGE('',*,*,#373,.T.);
#553=ORIENTED_EDGE('',*,*,#417,.T.);
#554=ORIENTED_EDGE('',*,*,#418,.F.);
#555=ORIENTED_EDGE('',*,*,#411,.T.);
#556=ORIENTED_EDGE('',*,*,#419,.T.);
#557=ORIENTED_EDGE('',*,*,#420,.T.);
#558=ORIENTED_EDGE('',*,*,#415,.T.);
#559=ORIENTED_EDGE('',*,*,#421,.T.);
#560=ORIENTED_EDGE('',*,*,#422,.F.);
#561=ORIENTED_EDGE('',*,*,#417,.F.);
#562=ORIENTED_EDGE('',*,*,#372,.F.);
#563=ORIENTED_EDGE('',*,*,#365,.T.);
#564=ORIENTED_EDGE('',*,*,#354,.F.);
#565=ORIENTED_EDGE('',*,*,#346,.T.);
#566=ORIENTED_EDGE('',*,*,#344,.F.);
#567=ORIENTED_EDGE('',*,*,#364,.T.);
#568=ORIENTED_EDGE('',*,*,#350,.F.);
#569=ORIENTED_EDGE('',*,*,#403,.F.);
#570=ORIENTED_EDGE('',*,*,#339,.F.);
#571=ORIENTED_EDGE('',*,*,#335,.F.);
#572=ORIENTED_EDGE('',*,*,#375,.F.);
#573=ORIENTED_EDGE('',*,*,#356,.F.);
#574=ORIENTED_EDGE('',*,*,#362,.F.);
#575=ORIENTED_EDGE('',*,*,#368,.F.);
#576=ORIENTED_EDGE('',*,*,#416,.T.);
#577=ORIENTED_EDGE('',*,*,#420,.F.);
#578=ORIENTED_EDGE('',*,*,#423,.F.);
#579=ORIENTED_EDGE('',*,*,#369,.F.);
#580=ORIENTED_EDGE('',*,*,#360,.T.);
#581=ORIENTED_EDGE('',*,*,#358,.F.);
#582=ORIENTED_EDGE('',*,*,#374,.T.);
#583=ORIENTED_EDGE('',*,*,#337,.F.);
#584=ORIENTED_EDGE('',*,*,#341,.T.);
#585=ORIENTED_EDGE('',*,*,#404,.F.);
#586=ORIENTED_EDGE('',*,*,#352,.F.);
#587=ORIENTED_EDGE('',*,*,#363,.F.);
#588=ORIENTED_EDGE('',*,*,#342,.F.);
#589=ORIENTED_EDGE('',*,*,#348,.F.);
#590=ORIENTED_EDGE('',*,*,#353,.F.);
#591=ORIENTED_EDGE('',*,*,#367,.F.);
#592=ORIENTED_EDGE('',*,*,#371,.F.);
#593=ORIENTED_EDGE('',*,*,#414,.T.);
#594=ORIENTED_EDGE('',*,*,#424,.F.);
#595=ORIENTED_EDGE('',*,*,#421,.F.);
#596=ORIENTED_EDGE('',*,*,#370,.T.);
#597=ORIENTED_EDGE('',*,*,#423,.T.);
#598=ORIENTED_EDGE('',*,*,#419,.F.);
#599=ORIENTED_EDGE('',*,*,#410,.T.);
#600=ORIENTED_EDGE('',*,*,#407,.T.);
#601=ORIENTED_EDGE('',*,*,#413,.T.);
#602=ORIENTED_EDGE('',*,*,#418,.T.);
#603=ORIENTED_EDGE('',*,*,#422,.T.);
#604=ORIENTED_EDGE('',*,*,#424,.T.);
#605=CYLINDRICAL_SURFACE('',#667,6.);
#606=CYLINDRICAL_SURFACE('',#671,17.);
#607=CYLINDRICAL_SURFACE('',#676,5.);
#608=CYLINDRICAL_SURFACE('',#679,20.);
#609=CYLINDRICAL_SURFACE('',#685,12.);
#610=CYLINDRICAL_SURFACE('',#688,30.);
#611=CYLINDRICAL_SURFACE('',#692,2.265);
#612=CYLINDRICAL_SURFACE('',#696,2.26500000000001);
#613=CYLINDRICAL_SURFACE('',#700,2.265);
#614=CYLINDRICAL_SURFACE('',#705,5.49999999999999);
#615=CYLINDRICAL_SURFACE('',#709,5.49999999999999);
#616=CYLINDRICAL_SURFACE('',#713,5.49999999999998);
#617=ADVANCED_FACE('',(#43),#605,.F.);
#618=ADVANCED_FACE('',(#44),#19,.T.);
#619=ADVANCED_FACE('',(#45),#606,.T.);
#620=ADVANCED_FACE('',(#46),#20,.T.);
#621=ADVANCED_FACE('',(#47),#21,.T.);
#622=ADVANCED_FACE('',(#48),#607,.F.);
#623=ADVANCED_FACE('',(#49),#608,.T.);
#624=ADVANCED_FACE('',(#50),#22,.T.);
#625=ADVANCED_FACE('',(#51),#23,.T.);
#626=ADVANCED_FACE('',(#52),#24,.T.);
#627=ADVANCED_FACE('',(#53),#609,.F.);
#628=ADVANCED_FACE('',(#54),#610,.T.);
#629=ADVANCED_FACE('',(#55),#25,.T.);
#630=ADVANCED_FACE('',(#56),#611,.T.);
#631=ADVANCED_FACE('',(#57),#26,.F.);
#632=ADVANCED_FACE('',(#58),#612,.T.);
#633=ADVANCED_FACE('',(#59),#27,.F.);
#634=ADVANCED_FACE('',(#60),#613,.T.);
#635=ADVANCED_FACE('',(#61),#28,.F.);
#636=ADVANCED_FACE('',(#62),#29,.T.);
#637=ADVANCED_FACE('',(#63),#614,.T.);
#638=ADVANCED_FACE('',(#64),#30,.T.);
#639=ADVANCED_FACE('',(#65),#615,.T.);
#640=ADVANCED_FACE('',(#66),#31,.T.);
#641=ADVANCED_FACE('',(#67),#616,.T.);
#642=ADVANCED_FACE('',(#68,#15),#32,.T.);
#643=ADVANCED_FACE('',(#69,#16,#17,#18),#33,.F.);
#644=ADVANCED_FACE('',(#70),#34,.F.);
#645=ADVANCED_FACE('',(#71),#35,.F.);
#646=ADVANCED_FACE('',(#72),#36,.F.);
#647=ADVANCED_FACE('',(#73),#37,.T.);
#648=ADVANCED_FACE('',(#74),#38,.T.);
#649=ADVANCED_FACE('',(#75),#39,.T.);
#650=ADVANCED_FACE('',(#76),#40,.T.);
#651=ADVANCED_FACE('',(#77),#41,.T.);
#652=ADVANCED_FACE('',(#78),#42,.T.);
#653=CLOSED_SHELL('',(#617,#618,#619,#620,#621,#622,#623,#624,#625,#626,
#627,#628,#629,#630,#631,#632,#633,#634,#635,#636,#637,#638,#639,#640,#641,
#642,#643,#644,#645,#646,#647,#648,#649,#650,#651,#652));
#654=DERIVED_UNIT_ELEMENT(#656,1.);
#655=DERIVED_UNIT_ELEMENT(#1107,-3.);
#656=(
MASS_UNIT()
NAMED_UNIT(*)
SI_UNIT(.KILO.,.GRAM.)
);
#657=DERIVED_UNIT((#654,#655));
#658=MEASURE_REPRESENTATION_ITEM('density measure',
POSITIVE_RATIO_MEASURE(7850.),#657);
#659=PROPERTY_DEFINITION_REPRESENTATION(#664,#661);
#660=PROPERTY_DEFINITION_REPRESENTATION(#665,#662);
#661=REPRESENTATION('material name',(#663),#1104);
#662=REPRESENTATION('density',(#658),#1104);
#663=DESCRIPTIVE_REPRESENTATION_ITEM('Steel','Steel');
#664=PROPERTY_DEFINITION('material property','material name',#1114);
#665=PROPERTY_DEFINITION('material property','density of part',#1114);
#666=AXIS2_PLACEMENT_3D('',#915,#727,#728);
#667=AXIS2_PLACEMENT_3D('',#916,#729,#730);
#668=AXIS2_PLACEMENT_3D('',#919,#731,#732);
#669=AXIS2_PLACEMENT_3D('',#923,#734,#735);
#670=AXIS2_PLACEMENT_3D('',#925,#737,#738);
#671=AXIS2_PLACEMENT_3D('',#931,#742,#743);
#672=AXIS2_PLACEMENT_3D('',#934,#744,#745);
#673=AXIS2_PLACEMENT_3D('',#938,#747,#748);
#674=AXIS2_PLACEMENT_3D('',#940,#750,#751);
#675=AXIS2_PLACEMENT_3D('',#946,#755,#756);
#676=AXIS2_PLACEMENT_3D('',#955,#761,#762);
#677=AXIS2_PLACEMENT_3D('',#957,#763,#764);
#678=AXIS2_PLACEMENT_3D('',#959,#765,#766);
#679=AXIS2_PLACEMENT_3D('',#961,#768,#769);
#680=AXIS2_PLACEMENT_3D('',#964,#770,#771);
#681=AXIS2_PLACEMENT_3D('',#968,#773,#774);
#682=AXIS2_PLACEMENT_3D('',#970,#776,#777);
#683=AXIS2_PLACEMENT_3D('',#976,#781,#782);
#684=AXIS2_PLACEMENT_3D('',#979,#785,#786);
#685=AXIS2_PLACEMENT_3D('',#985,#790,#791);
#686=AXIS2_PLACEMENT_3D('',#987,#792,#793);
#687=AXIS2_PLACEMENT_3D('',#989,#794,#795);
#688=AXIS2_PLACEMENT_3D('',#991,#797,#798);
#689=AXIS2_PLACEMENT_3D('',#993,#799,#800);
#690=AXIS2_PLACEMENT_3D('',#995,#801,#802);
#691=AXIS2_PLACEMENT_3D('',#997,#804,#805);
#692=AXIS2_PLACEMENT_3D('',#1000,#808,#809);
#693=AXIS2_PLACEMENT_3D('',#1002,#810,#811);
#694=AXIS2_PLACEMENT_3D('',#1005,#813,#814);
#695=AXIS2_PLACEMENT_3D('',#1006,#815,#816);
#696=AXIS2_PLACEMENT_3D('',#1007,#817,#818);
#697=AXIS2_PLACEMENT_3D('',#1009,#819,#820);
#698=AXIS2_PLACEMENT_3D('',#1012,#822,#823);
#699=AXIS2_PLACEMENT_3D('',#1013,#824,#825);
#700=AXIS2_PLACEMENT_3D('',#1014,#826,#827);
#701=AXIS2_PLACEMENT_3D('',#1016,#828,#829);
#702=AXIS2_PLACEMENT_3D('',#1019,#831,#832);
#703=AXIS2_PLACEMENT_3D('',#1020,#833,#834);
#704=AXIS2_PLACEMENT_3D('',#1021,#835,#836);
#705=AXIS2_PLACEMENT_3D('',#1030,#841,#842);
#706=AXIS2_PLACEMENT_3D('',#1032,#843,#844);
#707=AXIS2_PLACEMENT_3D('',#1034,#845,#846);
#708=AXIS2_PLACEMENT_3D('',#1036,#848,#849);
#709=AXIS2_PLACEMENT_3D('',#1042,#853,#854);
#710=AXIS2_PLACEMENT_3D('',#1044,#855,#856);
#711=AXIS2_PLACEMENT_3D('',#1046,#857,#858);
#712=AXIS2_PLACEMENT_3D('',#1048,#860,#861);
#713=AXIS2_PLACEMENT_3D('',#1054,#865,#866);
#714=AXIS2_PLACEMENT_3D('',#1055,#867,#868);
#715=AXIS2_PLACEMENT_3D('',#1056,#869,#870);
#716=AXIS2_PLACEMENT_3D('',#1057,#871,#872);
#717=AXIS2_PLACEMENT_3D('',#1060,#875,#876);
#718=AXIS2_PLACEMENT_3D('',#1061,#877,#878);
#719=AXIS2_PLACEMENT_3D('',#1070,#883,#884);
#720=AXIS2_PLACEMENT_3D('',#1076,#888,#889);
#721=AXIS2_PLACEMENT_3D('',#1082,#893,#894);
#722=AXIS2_PLACEMENT_3D('',#1089,#899,#900);
#723=AXIS2_PLACEMENT_3D('',#1093,#903,#904);
#724=AXIS2_PLACEMENT_3D('',#1097,#907,#908);
#725=AXIS2_PLACEMENT_3D('',#1099,#910,#911);
#726=AXIS2_PLACEMENT_3D('',#1101,#913,#914);
#727=DIRECTION('axis',(0.,0.,1.));
#728=DIRECTION('refdir',(1.,0.,0.));
#729=DIRECTION('center_axis',(1.,0.,0.));
#730=DIRECTION('ref_axis',(0.,0.707106781186547,-0.707106781186548));
#731=DIRECTION('center_axis',(-1.,0.,0.));
#732=DIRECTION('ref_axis',(0.,0.707106781186547,-0.707106781186548));
#733=DIRECTION('',(1.,0.,0.));
#734=DIRECTION('center_axis',(1.,0.,0.));
#735=DIRECTION('ref_axis',(0.,0.707106781186547,-0.707106781186548));
#736=DIRECTION('',(-1.,0.,0.));
#737=DIRECTION('center_axis',(0.,0.,1.));
#738=DIRECTION('ref_axis',(-1.,0.,0.));
#739=DIRECTION('',(0.,-1.,0.));
#740=DIRECTION('',(-1.,0.,0.));
#741=DIRECTION('',(0.,-1.,0.));
#742=DIRECTION('center_axis',(1.,0.,0.));
#743=DIRECTION('ref_axis',(0.,0.707106781186548,-0.707106781186547));
#744=DIRECTION('center_axis',(-1.,0.,0.));
#745=DIRECTION('ref_axis',(0.,0.707106781186548,-0.707106781186547));
#746=DIRECTION('',(-1.,0.,0.));
#747=DIRECTION('center_axis',(1.,0.,0.));
#748=DIRECTION('ref_axis',(0.,0.707106781186548,-0.707106781186547));
#749=DIRECTION('',(1.,0.,0.));
#750=DIRECTION('center_axis',(0.,1.,0.));
#751=DIRECTION('ref_axis',(1.,0.,0.));
#752=DIRECTION('',(0.,0.,-1.));
#753=DIRECTION('',(-1.,0.,0.));
#754=DIRECTION('',(0.,0.,-1.));
#755=DIRECTION('center_axis',(0.,-1.,0.));
#756=DIRECTION('ref_axis',(0.,0.,-1.));
#757=DIRECTION('',(1.,0.,0.));
#758=DIRECTION('',(0.,0.,-1.));
#759=DIRECTION('',(1.,0.,0.));
#760=DIRECTION('',(0.,0.,1.));
#761=DIRECTION('center_axis',(-1.,0.,0.));
#762=DIRECTION('ref_axis',(0.,-0.707106781186547,0.707106781186547));
#763=DIRECTION('center_axis',(1.,0.,0.));
#764=DIRECTION('ref_axis',(0.,-0.707106781186547,0.707106781186547));
#765=DIRECTION('center_axis',(-1.,0.,0.));
#766=DIRECTION('ref_axis',(0.,-0.707106781186547,0.707106781186547));
#767=DIRECTION('',(1.,0.,0.));
#768=DIRECTION('center_axis',(-1.,0.,0.));
#769=DIRECTION('ref_axis',(0.,-0.707106781186547,0.707106781186547));
#770=DIRECTION('center_axis',(1.,0.,0.));
#771=DIRECTION('ref_axis',(0.,-0.707106781186547,0.707106781186547));
#772=DIRECTION('',(1.,0.,0.));
#773=DIRECTION('center_axis',(-1.,0.,0.));
#774=DIRECTION('ref_axis',(0.,-0.707106781186547,0.707106781186547));
#775=DIRECTION('',(-1.,0.,0.));
#776=DIRECTION('center_axis',(0.,0.,1.));
#777=DIRECTION('ref_axis',(-1.,0.,0.));
#778=DIRECTION('',(0.,-1.,0.));
#779=DIRECTION('',(1.,0.,0.));
#780=DIRECTION('',(0.,-1.,0.));
#781=DIRECTION('center_axis',(0.,0.,-1.));
#782=DIRECTION('ref_axis',(-1.,0.,0.));
#783=DIRECTION('',(0.,-1.,0.));
#784=DIRECTION('',(0.,-1.,0.));
#785=DIRECTION('center_axis',(0.,0.,-1.));
#786=DIRECTION('ref_axis',(-1.,0.,0.));
#787=DIRECTION('',(0.,-1.,0.));
#788=DIRECTION('',(-1.,0.,0.));
#789=DIRECTION('',(0.,-1.,0.));
#790=DIRECTION('center_axis',(1.,0.,0.));
#791=DIRECTION('ref_axis',(0.,0.707106781186547,-0.707106781186547));
#792=DIRECTION('center_axis',(-1.,0.,0.));
#793=DIRECTION('ref_axis',(0.,0.707106781186547,-0.707106781186547));
#794=DIRECTION('center_axis',(1.,0.,0.));
#795=DIRECTION('ref_axis',(0.,0.707106781186547,-0.707106781186547));
#796=DIRECTION('',(1.,0.,0.));
#797=DIRECTION('center_axis',(1.,0.,0.));
#798=DIRECTION('ref_axis',(0.,0.707106781186547,-0.707106781186547));
#799=DIRECTION('center_axis',(-1.,0.,0.));
#800=DIRECTION('ref_axis',(0.,0.707106781186547,-0.707106781186547));
#801=DIRECTION('center_axis',(1.,0.,0.));
#802=DIRECTION('ref_axis',(0.,0.707106781186547,-0.707106781186547));
#803=DIRECTION('',(-1.,0.,0.));
#804=DIRECTION('center_axis',(0.,-1.,0.));
#805=DIRECTION('ref_axis',(0.,0.,-1.));
#806=DIRECTION('',(0.,0.,-1.));
#807=DIRECTION('',(0.,0.,-1.));
#808=DIRECTION('center_axis',(0.,-0.642787609686539,0.766044443118978));
#809=DIRECTION('ref_axis',(1.,0.,0.));
#810=DIRECTION('center_axis',(0.,-0.642787609686539,0.766044443118978));
#811=DIRECTION('ref_axis',(1.,0.,0.));
#812=DIRECTION('',(0.,0.642787609686539,-0.766044443118978));
#813=DIRECTION('center_axis',(0.,0.642787609686539,-0.766044443118978));
#814=DIRECTION('ref_axis',(1.,0.,0.));
#815=DIRECTION('center_axis',(0.,0.642787609686539,-0.766044443118978));
#816=DIRECTION('ref_axis',(1.,0.,0.));
#817=DIRECTION('center_axis',(0.,-0.642787609686539,0.766044443118978));
#818=DIRECTION('ref_axis',(1.,0.,0.));
#819=DIRECTION('center_axis',(0.,-0.642787609686539,0.766044443118978));
#820=DIRECTION('ref_axis',(1.,0.,0.));
#821=DIRECTION('',(0.,0.64278760968654,-0.766044443118978));
#822=DIRECTION('center_axis',(0.,0.642787609686539,-0.766044443118978));
#823=DIRECTION('ref_axis',(1.,0.,0.));
#824=DIRECTION('center_axis',(0.,0.642787609686539,-0.766044443118978));
#825=DIRECTION('ref_axis',(1.,0.,0.));
#826=DIRECTION('center_axis',(0.,-0.642787609686539,0.766044443118978));
#827=DIRECTION('ref_axis',(1.,0.,0.));
#828=DIRECTION('center_axis',(0.,-0.642787609686539,0.766044443118978));
#829=DIRECTION('ref_axis',(1.,0.,0.));
#830=DIRECTION('',(0.,0.642787609686539,-0.766044443118978));
#831=DIRECTION('center_axis',(0.,0.642787609686539,-0.766044443118978));
#832=DIRECTION('ref_axis',(1.,0.,0.));
#833=DIRECTION('center_axis',(0.,0.642787609686539,-0.766044443118978));
#834=DIRECTION('ref_axis',(1.,0.,0.));
#835=DIRECTION('center_axis',(0.905236944073029,-0.32549775115107,-0.273125042939897));
#836=DIRECTION('ref_axis',(-0.424907137013871,-0.693451730713149,-0.58187509148065));
#837=DIRECTION('',(-0.424907137013871,-0.693451730713149,-0.58187509148065));
#838=DIRECTION('',(0.,0.642787609686539,-0.766044443118978));
#839=DIRECTION('',(-0.424907137013871,-0.693451730713149,-0.58187509148065));
#840=DIRECTION('',(0.,0.642787609686539,-0.766044443118978));
#841=DIRECTION('center_axis',(0.,0.642787609686539,-0.766044443118978));
#842=DIRECTION('ref_axis',(-0.00900863629849336,0.766013358117675,0.642761526273411));
#843=DIRECTION('center_axis',(0.,0.642787609686539,-0.766044443118978));
#844=DIRECTION('ref_axis',(-0.00900863629849336,0.766013358117675,0.642761526273411));
#845=DIRECTION('center_axis',(0.,0.642787609686539,-0.766044443118978));
#846=DIRECTION('ref_axis',(-0.00900863629849336,0.766013358117675,0.642761526273411));
#847=DIRECTION('',(0.,0.642787609686539,-0.766044443118978));
#848=DIRECTION('center_axis',(-0.00900863629849249,0.766013358117675,0.642761526273411));
#849=DIRECTION('ref_axis',(0.99995942141271,0.00690101577654009,0.00579063979284338));
#850=DIRECTION('',(0.99995942141271,0.00690101577654009,0.00579063979284338));
#851=DIRECTION('',(0.99995942141271,0.00690101577654009,0.00579063979284338));
#852=DIRECTION('',(0.,0.642787609686539,-0.766044443118978));
#853=DIRECTION('center_axis',(0.,0.642787609686539,-0.766044443118978));
#854=DIRECTION('ref_axis',(-0.830730374147489,-0.426437783385229,-0.357823786758603));
#855=DIRECTION('center_axis',(0.,0.642787609686539,-0.766044443118978));
#856=DIRECTION('ref_axis',(-0.830730374147489,-0.426437783385229,-0.357823786758603));
#857=DIRECTION('center_axis',(0.,0.642787609686539,-0.766044443118978));
#858=DIRECTION('ref_axis',(-0.830730374147489,-0.426437783385229,-0.357823786758603));
#859=DIRECTION('',(0.,0.642787609686539,-0.766044443118978));
#860=DIRECTION('center_axis',(-0.830730374147489,-0.426437783385229,-0.357823786758603));
#861=DIRECTION('ref_axis',(-0.556674990877777,0.636376386845833,0.533983191492269));
#862=DIRECTION('',(-0.556674990877777,0.636376386845833,0.533983191492269));
#863=DIRECTION('',(-0.556674990877777,0.636376386845833,0.533983191492269));
#864=DIRECTION('',(0.,0.642787609686539,-0.766044443118978));
#865=DIRECTION('center_axis',(0.,0.642787609686539,-0.766044443118978));
#866=DIRECTION('ref_axis',(0.90523694407303,-0.325497751151067,-0.273125042939895));
#867=DIRECTION('center_axis',(0.,0.642787609686539,-0.766044443118978));
#868=DIRECTION('ref_axis',(0.90523694407303,-0.325497751151067,-0.273125042939895));
#869=DIRECTION('center_axis',(0.,0.642787609686539,-0.766044443118978));
#870=DIRECTION('ref_axis',(0.90523694407303,-0.325497751151067,-0.273125042939895));
#871=DIRECTION('center_axis',(0.,0.642787609686539,-0.766044443118978));
#872=DIRECTION('ref_axis',(1.,0.,0.));
#873=DIRECTION('',(0.,-0.766044443118978,-0.642787609686539));
#874=DIRECTION('',(0.,0.766044443118978,0.642787609686539));
#875=DIRECTION('center_axis',(0.,0.642787609686539,-0.766044443118978));
#876=DIRECTION('ref_axis',(1.,0.,0.));
#877=DIRECTION('center_axis',(0.,0.,-1.));
#878=DIRECTION('ref_axis',(-1.,0.,0.));
#879=DIRECTION('',(1.,0.,0.));
#880=DIRECTION('',(0.,1.,0.));
#881=DIRECTION('',(-1.,0.,0.));
#882=DIRECTION('',(0.,1.,0.));
#883=DIRECTION('center_axis',(0.965925826289068,0.,0.258819045102521));
#884=DIRECTION('ref_axis',(0.258819045102521,0.,-0.965925826289068));
#885=DIRECTION('',(-0.258819045102521,0.,0.965925826289068));
#886=DIRECTION('',(0.258819045102521,0.,-0.965925826289068));
#887=DIRECTION('',(0.,-1.,0.));
#888=DIRECTION('center_axis',(-0.965925826289068,0.,0.258819045102521));
#889=DIRECTION('ref_axis',(0.258819045102521,0.,0.965925826289068));
#890=DIRECTION('',(-0.258819045102521,0.,-0.965925826289068));
#891=DIRECTION('',(0.,1.,0.));
#892=DIRECTION('',(0.258819045102521,0.,0.965925826289068));
#893=DIRECTION('center_axis',(0.,1.,0.));
#894=DIRECTION('ref_axis',(-1.,0.,0.));
#895=DIRECTION('',(-1.,0.,0.));
#896=DIRECTION('',(0.,0.,1.));
#897=DIRECTION('',(0.,0.,1.));
#898=DIRECTION('',(-1.,0.,0.));
#899=DIRECTION('center_axis',(0.,0.,1.));
#900=DIRECTION('ref_axis',(1.,0.,0.));
#901=DIRECTION('',(1.,0.,0.));
#902=DIRECTION('',(0.,1.,0.));
#903=DIRECTION('center_axis',(-1.,0.,0.));
#904=DIRECTION('ref_axis',(0.,-1.,0.));
#905=DIRECTION('',(0.,0.,1.));
#906=DIRECTION('',(0.,-1.,0.));
#907=DIRECTION('center_axis',(1.,0.,0.));
#908=DIRECTION('ref_axis',(0.,1.,0.));
#909=DIRECTION('',(0.,0.,1.));
#910=DIRECTION('center_axis',(0.,-1.,0.));
#911=DIRECTION('ref_axis',(1.,0.,0.));
#912=DIRECTION('',(1.,0.,0.));
#913=DIRECTION('center_axis',(0.,0.,1.));
#914=DIRECTION('ref_axis',(1.,0.,0.));
#915=CARTESIAN_POINT('',(0.,0.,0.));
#916=CARTESIAN_POINT('Origin',(-75.5000000819564,54.,11.5));
#917=CARTESIAN_POINT('',(-89.,60.,11.5));
#918=CARTESIAN_POINT('',(-89.,54.,5.5));
#919=CARTESIAN_POINT('Origin',(-89.,54.,11.5));
#920=CARTESIAN_POINT('',(-71.0000001639128,54.,5.5));
#921=CARTESIAN_POINT('',(-75.5000000819564,54.,5.5));
#922=CARTESIAN_POINT('',(-71.0000001639128,60.,11.5));
#923=CARTESIAN_POINT('Origin',(-71.,54.,11.5));
#924=CARTESIAN_POINT('',(-75.5000000819564,60.,11.5));
#925=CARTESIAN_POINT('Origin',(-71.0000001639128,60.,5.5));
#926=CARTESIAN_POINT('',(-89.,5.42353116366677,5.5));
#927=CARTESIAN_POINT('',(-89.,60.,5.5));
#928=CARTESIAN_POINT('',(-71.0000001639128,5.42353116366677,5.5));
#929=CARTESIAN_POINT('',(-76.910233711369,5.42353116366677,5.5));
#930=CARTESIAN_POINT('',(-71.0000001639128,60.,5.5));
#931=CARTESIAN_POINT('Origin',(-84.5000000409782,61.0000011622906,4.5));
#932=CARTESIAN_POINT('',(-71.0000001639128,78.0000011622906,4.5));
#933=CARTESIAN_POINT('',(-71.0000001639128,61.0000011622906,-12.5));
#934=CARTESIAN_POINT('Origin',(-71.,61.0000011622906,4.5));
#935=CARTESIAN_POINT('',(-89.,61.0000011622906,-12.5));
#936=CARTESIAN_POINT('',(-84.5000000409782,61.0000011622906,-12.5));
#937=CARTESIAN_POINT('',(-89.,78.0000011622906,4.5));
#938=CARTESIAN_POINT('Origin',(-89.,61.0000011622906,4.5));
#939=CARTESIAN_POINT('',(-84.5000000409782,78.0000011622906,4.5));
#940=CARTESIAN_POINT('Origin',(-89.,78.0000011622906,17.5));
#941=CARTESIAN_POINT('',(-89.,78.0000011622906,12.5));
#942=CARTESIAN_POINT('',(-89.,78.0000011622906,17.5));
#943=CARTESIAN_POINT('',(-71.0000001639128,78.0000011622906,12.5));
#944=CARTESIAN_POINT('',(-84.5,78.0000011622906,12.5));
#945=CARTESIAN_POINT('',(-71.0000001639128,78.0000011622906,17.5));
#946=CARTESIAN_POINT('Origin',(-80.0000000819564,-16.,-3.5));
#947=CARTESIAN_POINT('',(-89.,-16.,-12.4764770979478));
#948=CARTESIAN_POINT('',(-71.0000001639128,-16.,-12.4764770979478));
#949=CARTESIAN_POINT('',(-81.4102336703908,-16.,-12.4764770979478));
#950=CARTESIAN_POINT('',(-89.,-16.,-12.5));
#951=CARTESIAN_POINT('',(-89.,-16.,5.5));
#952=CARTESIAN_POINT('',(-71.0000001639128,-16.,-12.5));
#953=CARTESIAN_POINT('',(-89.,-16.,-12.5));
#954=CARTESIAN_POINT('',(-71.0000001639128,-16.,-12.5));
#955=CARTESIAN_POINT('Origin',(-84.5,83.0000011622906,12.5));
#956=CARTESIAN_POINT('',(-71.,83.0000011622906,17.5));
#957=CARTESIAN_POINT('Origin',(-71.,83.0000011622906,12.5));
#958=CARTESIAN_POINT('',(-89.,83.0000011622906,17.5));
#959=CARTESIAN_POINT('Origin',(-89.,83.0000011622906,12.5));
#960=CARTESIAN_POINT('',(-84.5,83.0000011622906,17.5));
#961=CARTESIAN_POINT('Origin',(-75.5,80.,15.5));
#962=CARTESIAN_POINT('',(-89.,80.,35.5));
#963=CARTESIAN_POINT('',(-89.,60.,15.5));
#964=CARTESIAN_POINT('Origin',(-89.,80.,15.5));
#965=CARTESIAN_POINT('',(-71.0000001639128,60.,15.5));
#966=CARTESIAN_POINT('',(-75.5,60.,15.5));
#967=CARTESIAN_POINT('',(-71.,80.,35.5));
#968=CARTESIAN_POINT('Origin',(-71.,80.,15.5));
#969=CARTESIAN_POINT('',(-75.5,80.,35.5));
#970=CARTESIAN_POINT('Origin',(-71.,100.,35.5));
#971=CARTESIAN_POINT('',(-71.,88.,35.5));
#972=CARTESIAN_POINT('',(-71.,100.,35.5));
#973=CARTESIAN_POINT('',(-89.,88.,35.5));
#974=CARTESIAN_POINT('',(-71.,88.,35.5));
#975=CARTESIAN_POINT('',(-89.,100.,35.5));
#976=CARTESIAN_POINT('Origin',(-80.0000000819564,69.0000005811453,-12.5));
#977=CARTESIAN_POINT('',(-71.0000001639128,60.,-12.5));
#978=CARTESIAN_POINT('',(-89.,60.,-12.5));
#979=CARTESIAN_POINT('Origin',(-80.,112.,17.5));
#980=CARTESIAN_POINT('',(-89.,94.,17.5));
#981=CARTESIAN_POINT('',(-89.,100.,17.5));
#982=CARTESIAN_POINT('',(-71.,94.,17.5));
#983=CARTESIAN_POINT('',(-84.5,94.,17.5));
#984=CARTESIAN_POINT('',(-71.,100.,17.5));
#985=CARTESIAN_POINT('Origin',(-71.,88.,47.5));
#986=CARTESIAN_POINT('',(-89.,100.,47.5));
#987=CARTESIAN_POINT('Origin',(-89.,88.,47.5));
#988=CARTESIAN_POINT('',(-71.,100.,47.5));
#989=CARTESIAN_POINT('Origin',(-71.,88.,47.5));
#990=CARTESIAN_POINT('',(-89.,100.,47.5));
#991=CARTESIAN_POINT('Origin',(-84.5,94.,47.5));
#992=CARTESIAN_POINT('',(-71.,124.,47.5));
#993=CARTESIAN_POINT('Origin',(-71.,94.,47.5));
#994=CARTESIAN_POINT('',(-89.,124.,47.5));
#995=CARTESIAN_POINT('Origin',(-89.,94.,47.5));
#996=CARTESIAN_POINT('',(-71.,124.,47.5));
#997=CARTESIAN_POINT('Origin',(-80.,60.,26.5));
#998=CARTESIAN_POINT('',(-71.0000001639128,60.,17.5));
#999=CARTESIAN_POINT('',(-89.,60.,35.5));
#1000=CARTESIAN_POINT('Origin',(-110.5,9.56507751916282,18.1130210447263));
#1001=CARTESIAN_POINT('',(-112.765,6.35113947073012,21.9432432603212));
#1002=CARTESIAN_POINT('Origin',(-110.5,6.35113947073012,21.9432432603212));
#1003=CARTESIAN_POINT('',(-112.765,9.56507751916282,18.1130210447263));
#1004=CARTESIAN_POINT('',(-112.765,9.56507751916282,18.1130210447263));
#1005=CARTESIAN_POINT('Origin',(-110.5,9.56507751916282,18.1130210447263));
#1006=CARTESIAN_POINT('Origin',(-110.5,6.35113947073012,21.9432432603212));
#1007=CARTESIAN_POINT('Origin',(-55.,9.94809974072231,18.4344148495696));
#1008=CARTESIAN_POINT('',(-57.265,6.73416169228962,22.2646370651645));
#1009=CARTESIAN_POINT('Origin',(-55.,6.73416169228962,22.2646370651645));
#1010=CARTESIAN_POINT('',(-57.265,9.94809974072231,18.4344148495696));
#1011=CARTESIAN_POINT('',(-57.265,9.94809974072231,18.4344148495696));
#1012=CARTESIAN_POINT('Origin',(-55.,9.94809974072231,18.4344148495696));
#1013=CARTESIAN_POINT('Origin',(-55.,6.73416169228962,22.2646370651645));
#1014=CARTESIAN_POINT('Origin',(-78.,-27.5880779721076,-13.0621780250709));
#1015=CARTESIAN_POINT('',(-80.265,-30.8020160205403,-9.23195580947596));
#1016=CARTESIAN_POINT('Origin',(-78.,-30.8020160205403,-9.23195580947596));
#1017=CARTESIAN_POINT('',(-80.265,-27.5880779721076,-13.0621780250709));
#1018=CARTESIAN_POINT('',(-80.265,-27.5880779721076,-13.0621780250709));
#1019=CARTESIAN_POINT('Origin',(-78.,-27.5880779721076,-13.0621780250709));
#1020=CARTESIAN_POINT('Origin',(-78.,-30.8020160205403,-9.23195580947596));
#1021=CARTESIAN_POINT('Origin',(-49.2308085391576,8.54635427386338,17.2582107453238));
#1022=CARTESIAN_POINT('',(-49.2308085391576,8.54635427386338,17.2582107453238));
#1023=CARTESIAN_POINT('',(-72.9443103571274,-30.1542639188684,-15.2154637065301));
#1024=CARTESIAN_POINT('',(-49.2308085391576,8.54635427386338,17.2582107453238));
#1025=CARTESIAN_POINT('',(-72.9443103571274,-25.6547506510626,-20.577774808363));
#1026=CARTESIAN_POINT('',(-72.9443103571274,-30.1542639188684,-15.2154637065301));
#1027=CARTESIAN_POINT('',(-49.2308085391576,13.0458675416692,11.895899643491));
#1028=CARTESIAN_POINT('',(-49.2308085391576,13.0458675416692,11.895899643491));
#1029=CARTESIAN_POINT('',(-49.2308085391576,8.54635427386338,17.2582107453238));
#1030=CARTESIAN_POINT('Origin',(-54.2096117315593,10.3365919051943,18.7603984814933));
#1031=CARTESIAN_POINT('',(-54.259159231201,14.5496653748415,22.295586875997));
#1032=CARTESIAN_POINT('Origin',(-54.2096117315593,10.3365919051943,18.7603984814933));
#1033=CARTESIAN_POINT('',(-54.259159231201,19.0491786426472,16.9332757741642));
#1034=CARTESIAN_POINT('Origin',(-54.2096117315593,14.836105173,13.3980873796604));
#1035=CARTESIAN_POINT('',(-54.259159231201,14.5496653748415,22.295586875997));
#1036=CARTESIAN_POINT('Origin',(-111.480870285733,14.1547614194489,21.9642231126766));
#1037=CARTESIAN_POINT('',(-111.480870285733,14.1547614194489,21.9642231126766));
#1038=CARTESIAN_POINT('',(-111.480870285733,14.1547614194489,21.9642231126766));
#1039=CARTESIAN_POINT('',(-111.480870285733,18.6542746872547,16.6019120108438));
#1040=CARTESIAN_POINT('',(-111.480870285733,18.6542746872547,16.6019120108438));
#1041=CARTESIAN_POINT('',(-111.480870285733,14.1547614194489,21.9642231126766));
#1042=CARTESIAN_POINT('Origin',(-111.431322786091,9.94168794980169,18.4290347181729));
#1043=CARTESIAN_POINT('',(-116.000339843902,7.59628014118293,16.4610038910006));
#1044=CARTESIAN_POINT('Origin',(-111.431322786091,9.94168794980169,18.4290347181729));
#1045=CARTESIAN_POINT('',(-116.000339843902,12.0957934089887,11.0986927891677));
#1046=CARTESIAN_POINT('Origin',(-111.431322786091,14.4412012176075,13.06672361634));
#1047=CARTESIAN_POINT('',(-116.000339843902,7.59628014118293,16.4610038910006));
#1048=CARTESIAN_POINT('Origin',(-82.4921306073403,-30.7094340961562,-15.681306797533));
#1049=CARTESIAN_POINT('',(-82.4921306073403,-30.7094340961562,-15.681306797533));
#1050=CARTESIAN_POINT('',(-82.4921306073403,-30.7094340961562,-15.681306797533));
#1051=CARTESIAN_POINT('',(-82.4921306073403,-26.2099208283505,-21.0436178993659));
#1052=CARTESIAN_POINT('',(-82.4921306073403,-26.2099208283505,-21.0436178993659));
#1053=CARTESIAN_POINT('',(-82.4921306073403,-30.7094340961562,-15.681306797533));
#1054=CARTESIAN_POINT('Origin',(-77.9231135495291,-28.3640262875375,-13.7132759703607));
#1055=CARTESIAN_POINT('Origin',(-77.9231135495291,-28.3640262875375,-13.7132759703607));
#1056=CARTESIAN_POINT('Origin',(-77.9231135495291,-23.8645130197317,-19.0755870721936));
#1057=CARTESIAN_POINT('Origin',(-82.8204672588252,-4.51420392336583,-2.83874984626657));
#1058=CARTESIAN_POINT('',(-89.,38.5450201017626,33.2922291519986));
#1059=CARTESIAN_POINT('',(-71.,45.5869091677641,39.2010756700718));
#1060=CARTESIAN_POINT('Origin',(-82.8204672588252,-9.01371719117161,2.52356125556628));
#1061=CARTESIAN_POINT('Origin',(-72.1090323881477,100.,48.7));
#1062=CARTESIAN_POINT('',(-87.8909676118524,124.,48.7));
#1063=CARTESIAN_POINT('',(-72.1090323881477,124.,48.7));
#1064=CARTESIAN_POINT('',(-71.5545161940738,124.,48.7));
#1065=CARTESIAN_POINT('',(-87.8909676118524,100.,48.7));
#1066=CARTESIAN_POINT('',(-87.8909676118524,100.,48.7));
#1067=CARTESIAN_POINT('',(-72.1090323881477,100.,48.7));
#1068=CARTESIAN_POINT('',(-80.5545161940738,100.,48.7));
#1069=CARTESIAN_POINT('',(-72.1090323881477,100.,48.7));
#1070=CARTESIAN_POINT('Origin',(-76.2086550323438,100.,64.));
#1071=CARTESIAN_POINT('',(-76.2086550323438,124.,64.));
#1072=CARTESIAN_POINT('',(-73.9716981686477,124.,55.6515633303462));
#1073=CARTESIAN_POINT('',(-76.2086550323438,100.,64.));
#1074=CARTESIAN_POINT('',(-74.5745838516178,100.,57.9015633303462));
#1075=CARTESIAN_POINT('',(-76.2086550323438,106.,64.));
#1076=CARTESIAN_POINT('Origin',(-87.8909676118524,100.,48.7));
#1077=CARTESIAN_POINT('',(-83.7913449676562,124.,64.));
#1078=CARTESIAN_POINT('',(-87.4752274704804,124.,50.2515633303462));
#1079=CARTESIAN_POINT('',(-83.7913449676562,100.,64.));
#1080=CARTESIAN_POINT('',(-83.7913449676562,106.,64.));
#1081=CARTESIAN_POINT('',(-88.0781131534504,100.,48.0015633303462));
#1082=CARTESIAN_POINT('Origin',(-71.,124.,47.5));
#1083=CARTESIAN_POINT('',(-71.,124.,64.));
#1084=CARTESIAN_POINT('',(-71.,124.,64.));
#1085=CARTESIAN_POINT('',(-71.,124.,47.5));
#1086=CARTESIAN_POINT('',(-89.,124.,64.));
#1087=CARTESIAN_POINT('',(-89.,124.,47.5));
#1088=CARTESIAN_POINT('',(-71.,124.,64.));
#1089=CARTESIAN_POINT('Origin',(-80.,112.,64.));
#1090=CARTESIAN_POINT('',(-71.,100.,64.));
#1091=CARTESIAN_POINT('',(-89.,100.,64.));
#1092=CARTESIAN_POINT('',(-71.,100.,64.));
#1093=CARTESIAN_POINT('Origin',(-89.,124.,47.5));
#1094=CARTESIAN_POINT('',(-89.,100.,64.));
#1095=CARTESIAN_POINT('',(-89.,100.,47.5));
#1096=CARTESIAN_POINT('',(-89.,124.,64.));
#1097=CARTESIAN_POINT('Origin',(-71.,100.,47.5));
#1098=CARTESIAN_POINT('',(-71.,100.,47.5));
#1099=CARTESIAN_POINT('Origin',(-89.,100.,47.5));
#1100=CARTESIAN_POINT('',(-89.,100.,64.));
#1101=CARTESIAN_POINT('Origin',(-80.,112.,64.));
#1102=UNCERTAINTY_MEASURE_WITH_UNIT(LENGTH_MEASURE(0.01),#1106,
'DISTANCE_ACCURACY_VALUE',
'Maximum model space distance between geometric entities at asserted c
onnectivities');
#1103=UNCERTAINTY_MEASURE_WITH_UNIT(LENGTH_MEASURE(0.01),#1106,
'DISTANCE_ACCURACY_VALUE',
'Maximum model space distance between geometric entities at asserted c
onnectivities');
#1104=(
GEOMETRIC_REPRESENTATION_CONTEXT(3)
GLOBAL_UNCERTAINTY_ASSIGNED_CONTEXT((#1102))
GLOBAL_UNIT_ASSIGNED_CONTEXT((#1106,#1108,#1109))
REPRESENTATION_CONTEXT('','3D')
);
#1105=(
GEOMETRIC_REPRESENTATION_CONTEXT(3)
GLOBAL_UNCERTAINTY_ASSIGNED_CONTEXT((#1103))
GLOBAL_UNIT_ASSIGNED_CONTEXT((#1106,#1108,#1109))
REPRESENTATION_CONTEXT('','3D')
);
#1106=(
LENGTH_UNIT()
NAMED_UNIT(*)
SI_UNIT(.MILLI.,.METRE.)
);
#1107=(
LENGTH_UNIT()
NAMED_UNIT(*)
SI_UNIT($,.METRE.)
);
#1108=(
NAMED_UNIT(*)
PLANE_ANGLE_UNIT()
SI_UNIT($,.RADIAN.)
);
#1109=(
NAMED_UNIT(*)
SI_UNIT($,.STERADIAN.)
SOLID_ANGLE_UNIT()
);
#1110=SHAPE_DEFINITION_REPRESENTATION(#1111,#1112);
#1111=PRODUCT_DEFINITION_SHAPE('',$,#1114);
#1112=SHAPE_REPRESENTATION('',(#666),#1104);
#1113=PRODUCT_DEFINITION_CONTEXT('part definition',#1118,'design');
#1114=PRODUCT_DEFINITION('2026-09-25-14-17-56-029','Final Bottom Stand',
#1115,#1113);
#1115=PRODUCT_DEFINITION_FORMATION('',$,#1120);
#1116=PRODUCT_RELATED_PRODUCT_CATEGORY('Final Bottom Stand',
'Final Bottom Stand',(#1120));
#1117=APPLICATION_PROTOCOL_DEFINITION('international standard',
'automotive_design',2009,#1118);
#1118=APPLICATION_CONTEXT(
'Core Data for Automotive Mechanical Design Process');
#1119=PRODUCT_CONTEXT('part definition',#1118,'mechanical');
#1120=PRODUCT('2026-09-25-14-17-56-029','Final Bottom Stand',$,(#1119));
#1121=PRESENTATION_STYLE_ASSIGNMENT((#1122));
#1122=SURFACE_STYLE_USAGE(.BOTH.,#1123);
#1123=SURFACE_SIDE_STYLE('',(#1124));
#1124=SURFACE_STYLE_FILL_AREA(#1125);
#1125=FILL_AREA_STYLE('Steel - Satin',(#1126));
#1126=FILL_AREA_STYLE_COLOUR('Steel - Satin',#1127);
#1127=COLOUR_RGB('Steel - Satin',0.627450980392157,0.627450980392157,0.627450980392157);
ENDSEC;
END-ISO-10303-21;
