M48
; DRILL file KiCad 10.0.6 date 2026-09-24T12:15:50
; FORMAT={-:-/ absolute / metric / decimal}
; #@! TF.CreationDate,2026-09-24T12:15:50-04:00
; #@! TF.GenerationSoftware,Kicad,Pcbnew,10.0.6
; #@! TF.FileFunction,Plated,1,2,PTH
FMAT,2
METRIC
; #@! TA.AperFunction,Plated,PTH,ViaDrill
T1C0.300
; #@! TA.AperFunction,Plated,PTH,ComponentDrill
T2C0.700
; #@! TA.AperFunction,Plated,PTH,ComponentDrill
T3C1.000
; #@! TA.AperFunction,Plated,PTH,ComponentDrill
T4C1.150
; #@! TA.AperFunction,Plated,PTH,ComponentDrill
T5C1.500
; #@! TA.AperFunction,Plated,PTH,ComponentDrill
T6C2.600
%
G90
G05
T1
X114.0Y-35.5
X114.5Y-42.5
X115.1Y-44.0
X116.0Y-45.5
X116.1Y-49.0
X137.5Y-54.0
X138.0Y-55.0
X140.0Y-85.5
X140.5Y-57.5
X140.5Y-59.5
X141.5Y-56.5
X151.0Y-60.0
T2
X94.0Y-76.38
X94.0Y-84.0
X152.5Y-101.5
X160.12Y-101.5
X163.5Y-69.88
X163.5Y-77.5
T3
X110.0Y-41.0
X110.0Y-43.54
X110.0Y-46.08
X110.0Y-48.62
X120.625Y-33.38
X120.625Y-35.92
X120.625Y-38.46
X120.625Y-41.0
X120.625Y-43.54
X120.625Y-46.08
X120.625Y-48.62
X135.875Y-33.38
X135.875Y-35.92
X135.875Y-38.46
X135.875Y-41.0
X135.875Y-43.54
X135.875Y-46.08
X135.875Y-48.62
X148.5Y-40.5
X148.5Y-43.0
X148.5Y-45.5
X163.0Y-40.5
X163.0Y-45.5
T4
X94.0Y-64.0
X94.0Y-70.0
X146.0Y-105.0
X150.5Y-105.0
X163.5Y-57.5
X163.5Y-63.5
T5
X105.14Y-69.46
X105.14Y-88.51
X111.49Y-66.92
X111.49Y-85.97
X124.19Y-69.46
X124.19Y-88.51
X130.54Y-66.92
X130.54Y-85.97
X143.24Y-69.46
X143.24Y-88.51
X149.59Y-66.92
X149.59Y-85.97
T6
X156.0Y-37.4
X156.0Y-48.6
M30
